<svg width="190" height="40" viewBox="0 0 190 40" fill="none" xmlns="http://www.w3.org/2000/svg">
<path fill-rule="evenodd" clip-rule="evenodd" d="M53.3128 25.6197C53.4459 29.0064 52.9318 32.3764 51.8095 35.5521L51.8046 35.5556L51.7999 35.5586C50.5841 38.2615 47.896 40 44.9321 40H8.42418C5.45168 40 2.75409 38.2617 1.52432 35.5556C0.401371 32.3791 -0.112523 29.0074 0.0205777 25.6197C0.199705 21.0606 1.54563 16.6237 3.92961 12.7334C6.31359 8.84307 9.65588 5.62952 13.6368 3.40011C17.6177 1.1707 22.104 0 26.6667 0C31.2293 0 35.7157 1.17069 39.6966 3.4001C43.6775 5.62952 47.0198 8.84307 49.4038 12.7334C51.7877 16.6237 53.1337 21.0606 53.3128 25.6197ZM6.25364 35.2219C6.33889 35.4253 6.53915 35.5556 6.7597 35.5556H15.1084C15.394 35.5556 15.6315 35.3388 15.6726 35.0562C15.7269 34.6819 15.7999 34.3136 15.8906 33.9524C15.96 33.6759 15.8234 33.3854 15.56 33.2763L5.48433 29.1049C5.09752 28.9448 4.68107 29.2537 4.73785 29.6685C4.99878 31.5746 5.50757 33.4418 6.25364 35.2219ZM38.2272 35.5556C37.9416 35.5556 37.7041 35.3388 37.663 35.0562C37.6015 34.6323 37.516 34.2162 37.4081 33.8093C37.3343 33.5315 37.4697 33.2371 37.7349 33.1263L47.876 28.8878C48.2608 28.7269 48.6773 29.0316 48.6249 29.4454C48.3739 31.4289 47.8549 33.3724 47.0797 35.2219C46.9945 35.4253 46.7942 35.5556 46.5737 35.5556H38.2272ZM4.54563 25.9295C4.53803 26.1574 4.67469 26.3646 4.88538 26.4518L16.4095 31.2229C16.6731 31.332 16.9751 31.223 17.1213 30.9781C17.3166 30.6511 17.5282 30.3349 17.755 30.0308C17.9257 29.802 17.9109 29.4809 17.7091 29.2791L6.91851 18.4885C6.64091 18.2109 6.17132 18.3013 6.02943 18.6674C5.14941 20.9378 4.64673 23.3465 4.55042 25.7977C4.54869 25.8417 4.54709 25.8856 4.54563 25.9295ZM7.59059 15.4423C7.4642 15.6571 7.50214 15.9295 7.67836 16.1057L19.2804 27.7078C19.4823 27.9096 19.8033 27.9244 20.0322 27.7538C20.3346 27.5282 20.6488 27.3178 20.9739 27.1234C21.2186 26.9771 21.3275 26.6751 21.2184 26.4117L14.1331 9.30637C13.9959 8.97511 13.5854 8.8585 13.3009 9.07673C11.1227 10.7475 9.19485 12.8175 7.79491 15.102C7.72575 15.2149 7.65764 15.3283 7.59059 15.4423ZM16.1111 7.22222C15.9082 7.33589 15.825 7.58401 15.9141 7.79893L23.2711 25.5605C23.3803 25.824 23.6709 25.9606 23.9475 25.891C24.311 25.7995 24.6816 25.7259 25.0583 25.6713C25.341 25.6303 25.5578 25.3927 25.5578 25.1071V5.13884C25.5578 4.82227 25.2935 4.56901 24.9777 4.59094C21.8402 4.80873 18.9178 5.65039 16.1111 7.22222ZM28.3602 4.59125C28.0443 4.56926 27.78 4.82253 27.78 5.13915V25.1074C27.78 25.393 27.9967 25.6305 28.2793 25.6716C28.6553 25.7262 29.0252 25.7996 29.3879 25.8909C29.6645 25.9605 29.9551 25.824 30.0643 25.5605L37.4202 7.80166C37.5097 7.58572 37.4262 7.33643 37.2222 7.22222C34.4169 5.65114 31.496 4.80954 28.3602 4.59125ZM40.0341 9.07794C39.7496 8.85968 39.339 8.97628 39.2018 9.30756L32.1171 26.4116C32.008 26.675 32.1168 26.977 32.3616 27.1233C32.6865 27.3176 33.0006 27.5279 33.3029 27.7533C33.5317 27.9239 33.8527 27.9091 34.0546 27.7073L45.6554 16.1064C45.8317 15.9302 45.8696 15.6578 45.7432 15.443C45.676 15.3288 45.6078 15.2151 45.5385 15.102C44.1389 12.8181 42.2116 10.7485 40.0341 9.07794ZM47.3043 18.6682C47.1624 18.3022 46.6928 18.2118 46.4152 18.4894L35.6261 29.2785C35.4242 29.4803 35.4095 29.8014 35.5801 30.0302C35.7777 30.2951 35.9637 30.5691 36.1375 30.8515C36.2858 31.0925 36.586 31.198 36.8471 31.0889L48.5172 26.2112C48.6833 26.1418 48.79 25.9775 48.783 25.7977C48.6867 23.3468 48.1841 20.9384 47.3043 18.6682Z" fill="#131314"/>
<path d="M76.1724 36.6138C70.4852 36.6138 66.6667 33.2042 66.6667 28.2088V28.1559C66.6667 23.3191 70.5123 20.3588 77.2556 19.9624L85.001 19.5131V17.425C85.001 14.3591 82.9699 12.5089 79.3409 12.5089C75.9557 12.5089 73.8704 14.0683 73.3829 16.2885L73.3288 16.5264H67.8041L67.8312 16.2356C68.2374 11.4517 72.4892 7.77778 79.5034 7.77778C86.4634 7.77778 90.8777 11.3724 90.8777 16.9493V36.1116H85.001V31.7241H84.8927C83.2407 34.7108 79.9367 36.6138 76.1724 36.6138ZM72.5705 28.0767C72.5705 30.5083 74.6287 32.0413 77.7702 32.0413C81.8866 32.0413 85.001 29.3189 85.001 25.6979V23.5305L78.041 23.9534C74.5204 24.1649 72.5705 25.6714 72.5705 28.0238V28.0767Z" fill="#131314"/>
<path d="M105.705 36.6667C99.4496 36.6667 95.8748 32.7285 95.8748 26.3322V8.30639H101.724V25.2221C101.724 29.4246 103.729 31.7505 107.791 31.7505C111.907 31.7505 114.561 28.8696 114.561 24.5349V8.30639H120.438V36.1116H114.561V31.9355H114.426C112.936 34.7372 110.039 36.6667 105.705 36.6667Z" fill="#131314"/>
<path d="M125.679 36.1116V8.30639H131.528V13.0639H131.664C132.585 9.81295 134.968 7.77778 138.218 7.77778C139.057 7.77778 139.788 7.90993 140.249 7.98922V13.3018C139.788 13.1168 138.759 12.9847 137.622 12.9847C133.857 12.9847 131.528 15.3899 131.528 19.5395V36.1116H125.679Z" fill="#131314"/>
<path d="M151.096 36.6138C145.408 36.6138 141.59 33.2042 141.59 28.2088V28.1559C141.59 23.3191 145.435 20.3588 152.179 19.9624L159.924 19.5131V17.425C159.924 14.3591 157.893 12.5089 154.264 12.5089C150.879 12.5089 148.794 14.0683 148.306 16.2885L148.252 16.5264H142.727L142.754 16.2356C143.161 11.4517 147.412 7.77778 154.427 7.77778C161.387 7.77778 165.801 11.3724 165.801 16.9493V36.1116H159.924V31.7241H159.816C158.164 34.7108 154.86 36.6138 151.096 36.6138ZM147.494 28.0767C147.494 30.5083 149.552 32.0413 152.693 32.0413C156.81 32.0413 159.924 29.3189 159.924 25.6979V23.5305L152.964 23.9534C149.444 24.1649 147.494 25.6714 147.494 28.0238V28.0767Z" fill="#131314"/>
<path d="M171.583 36.1116L184.028 12.6997V12.5824H169.318V7.88826H190V12.641L177.936 36.1116H171.583Z" fill="#131314"/>
</svg>
