<svg width="34" height="23" viewBox="0 0 34 23" fill="none" xmlns="http://www.w3.org/2000/svg">
<rect x="0.75" y="0.75" width="32.5" height="21.5" rx="5.25" stroke="#A8ADB4" stroke-width="1.5"/>
<path d="M10.7638 7.27273V16H8.91862V9.02415H8.86749L6.86891 10.277V8.64062L9.02942 7.27273H10.7638ZM15.8537 16.1193C15.1974 16.1193 14.6136 16.0128 14.1023 15.7997C13.5938 15.5838 13.1946 15.2898 12.9048 14.9176C12.6151 14.5455 12.4702 14.1236 12.4702 13.652C12.4702 13.2884 12.5526 12.9545 12.7173 12.6506C12.8849 12.3438 13.1122 12.0895 13.3991 11.8878C13.6861 11.6832 14.0071 11.5526 14.3622 11.4957V11.4361C13.8963 11.3423 13.5185 11.1165 13.2287 10.7585C12.9389 10.3977 12.794 9.97869 12.794 9.50142C12.794 9.04972 12.9261 8.64773 13.1903 8.29545C13.4545 7.94034 13.8168 7.66193 14.277 7.46023C14.7401 7.25568 15.2656 7.15341 15.8537 7.15341C16.4418 7.15341 16.9659 7.25568 17.4261 7.46023C17.8892 7.66477 18.2528 7.9446 18.517 8.29972C18.7813 8.65199 18.9148 9.05256 18.9176 9.50142C18.9148 9.98153 18.767 10.4006 18.4744 10.7585C18.1818 11.1165 17.8068 11.3423 17.3494 11.4361V11.4957C17.6989 11.5526 18.0156 11.6832 18.2997 11.8878C18.5866 12.0895 18.8139 12.3438 18.9815 12.6506C19.152 12.9545 19.2386 13.2884 19.2415 13.652C19.2386 14.1236 19.0923 14.5455 18.8026 14.9176C18.5128 15.2898 18.1122 15.5838 17.6009 15.7997C17.0923 16.0128 16.5099 16.1193 15.8537 16.1193ZM15.8537 14.7642C16.1463 14.7642 16.402 14.7116 16.6207 14.6065C16.8395 14.4986 17.0099 14.3509 17.1321 14.1634C17.2571 13.973 17.3196 13.7543 17.3196 13.5071C17.3196 13.2543 17.2557 13.0312 17.1278 12.8381C17 12.642 16.8267 12.4886 16.608 12.3778C16.3892 12.2642 16.1378 12.2074 15.8537 12.2074C15.5724 12.2074 15.321 12.2642 15.0994 12.3778C14.8778 12.4886 14.7031 12.642 14.5753 12.8381C14.4503 13.0312 14.3878 13.2543 14.3878 13.5071C14.3878 13.7543 14.4489 13.973 14.571 14.1634C14.6932 14.3509 14.8651 14.4986 15.0866 14.6065C15.3082 14.7116 15.5639 14.7642 15.8537 14.7642ZM15.8537 10.8651C16.098 10.8651 16.3153 10.8153 16.5057 10.7159C16.696 10.6165 16.8452 10.4787 16.9531 10.3026C17.0611 10.1264 17.1151 9.9233 17.1151 9.69318C17.1151 9.46591 17.0611 9.26705 16.9531 9.09659C16.8452 8.9233 16.6974 8.78835 16.5099 8.69176C16.3224 8.59233 16.1037 8.54261 15.8537 8.54261C15.6065 8.54261 15.3878 8.59233 15.1974 8.69176C15.0071 8.78835 14.858 8.9233 14.75 9.09659C14.6449 9.26705 14.5923 9.46591 14.5923 9.69318C14.5923 9.9233 14.6463 10.1264 14.7543 10.3026C14.8622 10.4787 15.0114 10.6165 15.2017 10.7159C15.392 10.8153 15.6094 10.8651 15.8537 10.8651ZM22.8996 14.6705V8.63636H24.4251V14.6705H22.8996ZM20.6453 12.4162V10.8906H26.6794V12.4162H20.6453Z" fill="#A8ADB4"/>
</svg>
