<svg width="64" height="64" viewBox="0 0 64 64" fill="none" xmlns="http://www.w3.org/2000/svg">
<path fill-rule="evenodd" clip-rule="evenodd" d="M62.9761 38.6032C63.1308 42.5826 62.5332 46.5423 61.2285 50.2737L61.2228 50.2778L61.2173 50.2814C59.804 53.4572 56.679 55.5 53.2335 55.5H10.7931C7.33758 55.5 4.20163 53.4575 2.77202 50.2778C1.46659 46.5454 0.869192 42.5837 1.02392 38.6032C1.23216 33.2462 2.79679 28.0328 5.56817 23.4617C8.33955 18.8906 12.225 15.1147 16.8528 12.4951C21.4805 9.87557 26.6959 8.5 32 8.5C37.3041 8.5 42.5195 9.87557 47.1473 12.4951C51.7751 15.1147 55.6605 18.8906 58.4318 23.4617C61.2032 28.0328 62.7679 33.2462 62.9761 38.6032ZM8.26986 49.8858C8.36896 50.1248 8.60176 50.2778 8.85815 50.2778H18.5635C18.8955 50.2778 19.1716 50.0231 19.2193 49.691C19.2825 49.2512 19.3674 48.8185 19.4728 48.3941C19.5535 48.0692 19.3947 47.7279 19.0885 47.5997L7.37553 42.6983C6.92586 42.5101 6.44174 42.8731 6.50775 43.3605C6.81108 45.6001 7.40255 47.7941 8.26986 49.8858ZM45.4391 50.2778C45.1071 50.2778 44.831 50.0231 44.7833 49.691C44.7117 49.193 44.6124 48.7041 44.4868 48.2259C44.4012 47.8995 44.5585 47.5536 44.8667 47.4234L56.6558 42.4431C57.1031 42.2541 57.5873 42.6121 57.5264 43.0983C57.2346 45.4289 56.6313 47.7126 55.7302 49.8858C55.6311 50.1248 55.3983 50.2778 55.1419 50.2778H45.4391ZM6.28429 38.9672C6.27546 39.235 6.43433 39.4784 6.67925 39.5809L20.076 45.1869C20.3824 45.3151 20.7336 45.187 20.9036 44.8993C21.1306 44.515 21.3766 44.1436 21.6402 43.7862C21.8386 43.5173 21.8214 43.1401 21.5868 42.9029L9.04276 30.224C8.72005 29.8978 8.17415 30.0041 8.00921 30.4342C6.98619 33.1019 6.40182 35.9321 6.28986 38.8123C6.28785 38.864 6.28599 38.9156 6.28429 38.9672ZM9.82405 26.6447C9.67713 26.8971 9.72123 27.2171 9.92609 27.4242L23.4135 41.0566C23.6481 41.2938 24.0214 41.3112 24.2874 41.1107C24.6389 40.8457 25.0043 40.5984 25.3821 40.37C25.6666 40.1981 25.7932 39.8432 25.6663 39.5337L17.4298 19.435C17.2703 19.0458 16.793 18.9087 16.4623 19.1652C13.9302 21.1284 11.689 23.5606 10.0616 26.2449C9.98118 26.3775 9.902 26.5108 9.82405 26.6447ZM19.7292 16.9861C19.4932 17.1197 19.3966 17.4112 19.5001 17.6637L28.0527 38.5336C28.1796 38.8433 28.5174 39.0037 28.839 38.9219C29.2615 38.8144 29.6924 38.728 30.1303 38.6637C30.4589 38.6156 30.7109 38.3364 30.7109 38.0009V14.5381C30.7109 14.1662 30.4037 13.8686 30.0365 13.8944C26.3892 14.1503 22.992 15.1392 19.7292 16.9861ZM33.9687 13.8947C33.6015 13.8689 33.2942 14.1665 33.2942 14.5385V38.0013C33.2942 38.3368 33.5462 38.6159 33.8747 38.6641C34.3118 38.7283 34.7417 38.8146 35.1635 38.9218C35.485 39.0036 35.8228 38.8432 35.9497 38.5336L44.501 17.6669C44.605 17.4132 44.5079 17.1203 44.2708 16.9861C41.0096 15.1401 37.6141 14.1512 33.9687 13.8947ZM47.5396 19.1666C47.2089 18.9101 46.7316 19.0471 46.5721 19.4364L38.3361 39.5336C38.2092 39.8431 38.3358 40.198 38.6203 40.3699C38.998 40.5981 39.3632 40.8453 39.7146 41.1102C39.9806 41.3106 40.3538 41.2932 40.5884 41.0561L54.0744 27.425C54.2793 27.218 54.3234 26.8979 54.1765 26.6456C54.0984 26.5114 54.019 26.3778 53.9384 26.2449C52.3114 23.5613 50.0709 21.1295 47.5396 19.1666ZM55.9912 30.4352C55.8263 30.0051 55.2803 29.8988 54.9576 30.225L42.4153 42.9022C42.1807 43.1394 42.1635 43.5167 42.3619 43.7855C42.5916 44.0968 42.8078 44.4187 43.0098 44.7505C43.1823 45.0337 43.5312 45.1576 43.8347 45.0294L57.4012 39.2982C57.5943 39.2167 57.7184 39.0236 57.7102 38.8123C57.5982 35.9325 57.014 33.1026 55.9912 30.4352Z" fill="#E23065"/>
</svg>
