<svg width="28" height="36" viewBox="0 0 28 36" fill="none" xmlns="http://www.w3.org/2000/svg">
<path d="M5.18518 12.0532V19.3989" stroke="#A8ADB4" stroke-width="1.5" stroke-linecap="round" stroke-linejoin="round"/>
<path d="M7.22357 26.01C7.95856 24.8827 8.96319 23.9565 10.1464 23.3154C11.3297 22.6744 12.6542 22.3386 14 22.3386C15.3457 22.3386 16.6702 22.6744 17.8535 23.3154C19.0367 23.9565 20.0414 24.8827 20.7763 26.01" stroke="#A8ADB4" stroke-width="1.5" stroke-linecap="round" stroke-linejoin="round"/>
<path d="M22.8148 12.0533L14 14.9915L5.18518 12.0533L14 9.11499L22.8148 12.0533Z" stroke="#A8ADB4" stroke-width="1.5" stroke-linecap="round" stroke-linejoin="round"/>
<path d="M17.7923 13.7244C18.4661 14.4602 18.9113 15.3762 19.0736 16.3606C19.2359 17.3451 19.1083 18.3555 18.7063 19.2687C18.3043 20.1819 17.6453 20.9584 16.8097 21.5035C15.974 22.0487 14.9978 22.339 14.0001 22.339C13.0024 22.339 12.0262 22.0487 11.1905 21.5035C10.3549 20.9584 9.69592 20.1819 9.29393 19.2687C8.89195 18.3555 8.76432 17.3451 8.9266 16.3606C9.08888 15.3762 9.53407 14.4602 10.2079 13.7244" stroke="#A8ADB4" stroke-width="1.5" stroke-linecap="round" stroke-linejoin="round"/>
</svg>
