<svg width="28" height="36" viewBox="0 0 28 36" fill="none" xmlns="http://www.w3.org/2000/svg">
<path d="M7.10652 21.9645L7.1951 21.6538L7.03021 21.376C6.09175 19.795 5.76281 17.9256 6.10517 16.1192C6.44754 14.3127 7.43765 12.6933 8.88955 11.5653C10.3415 10.4372 12.1553 9.87802 13.9903 9.99274C15.8254 10.1075 17.5554 10.8882 18.8555 12.1883C20.1556 13.4884 20.9363 15.2184 21.0511 17.0535C21.1658 18.8885 20.6066 20.7023 19.4785 22.1542C18.3504 23.6061 16.7311 24.5963 14.9246 24.9386C13.1182 25.281 11.2488 24.952 9.66775 24.0136L9.38995 23.8487L9.07928 23.9373L6.31963 24.7242L7.10652 21.9645Z" stroke="#A8ADB4" stroke-width="1.5"/>
</svg>
