<svg width="28" height="36" viewBox="0 0 28 36" fill="none" xmlns="http://www.w3.org/2000/svg">
<path d="M8.2362 28C8.00755 28 7.78049 27.9287 7.58671 27.7885C7.22574 27.5269 7.05712 27.0773 7.15536 26.6434L8.49797 20.7292L3.94469 16.736C3.60999 16.4439 3.48213 15.9811 3.61954 15.5578C3.75696 15.1352 4.13082 14.836 4.57348 14.7951L10.598 14.2481L12.9799 8.67401C13.1556 8.26448 13.5555 8 13.9999 8C14.4443 8 14.8443 8.26448 15.02 8.67306L17.4018 14.2481L23.4254 14.7951C23.8691 14.835 24.2429 15.1352 24.3803 15.5578C24.5177 15.9804 24.3907 16.4439 24.056 16.736L19.5027 20.7284L20.8453 26.6424C20.9437 27.0773 20.7749 27.5269 20.4141 27.7877C20.0541 28.0486 19.574 28.0686 19.1949 27.8408L13.9999 24.7363L8.80496 27.8425C8.62933 27.9468 8.43364 28 8.2362 28ZM13.9999 23.3989C14.1974 23.3989 14.3929 23.452 14.5687 23.5563L19.4715 26.4886L18.2044 20.9065C18.1139 20.5093 18.2488 20.0945 18.5558 19.8257L22.8551 16.0552L17.167 15.5387C16.7574 15.5012 16.4052 15.2438 16.2452 14.8664L13.9999 9.60613L11.752 14.8672C11.5937 15.242 11.2415 15.4995 10.8329 15.5369L5.14399 16.0534L9.44315 19.824C9.7511 20.0935 9.8858 20.5075 9.79456 20.9058L8.52838 26.4877L13.4312 23.5563C13.6068 23.452 13.8025 23.3989 13.9999 23.3989ZM10.552 14.3559C10.552 14.3559 10.552 14.3569 10.5511 14.3577L10.552 14.3559ZM17.4461 14.3534L17.4471 14.3551C17.4471 14.3542 17.4471 14.3542 17.4461 14.3534Z" fill="#A8ADB4"/>
</svg>
