<svg width="70" height="70" viewBox="0 0 70 70" fill="none" xmlns="http://www.w3.org/2000/svg">
<rect width="70" height="70" rx="35" fill="#001024" fill-opacity="0.04"/>
<path d="M49.4668 24.8809C49.0781 24.4214 48.5338 24.1407 47.934 24.0906L26.8077 22.3266C26.2078 22.2765 25.6246 22.463 25.165 22.8517C24.7073 23.2388 24.4271 23.7804 24.3754 24.3773L23.9504 28.3649H22.2532C21.0108 28.3649 20 29.3757 20 30.6181V43.8428C20 45.0852 21.0108 46.096 22.2532 46.096H43.4531C44.6956 46.096 45.7064 45.0852 45.7064 43.8428V41.6975L46.4587 41.7603C46.5221 41.7656 46.5852 41.7682 46.6478 41.7682C47.8061 41.7682 48.7935 40.8771 48.8916 39.7024L49.992 26.5236C50.0421 25.9238 49.8556 25.3404 49.4668 24.8809ZM22.2532 29.5368H43.4531C44.0494 29.5368 44.5345 30.0219 44.5345 30.6181V31.8231H21.1719V30.6181C21.1719 30.0219 21.657 29.5368 22.2532 29.5368ZM21.1719 32.995H44.5345V35.426H21.1719V32.995ZM43.4531 44.9241H22.2532C21.657 44.9241 21.1719 44.439 21.1719 43.8428V36.5979H44.5345V43.8428C44.5345 44.439 44.0494 44.9241 43.4531 44.9241ZM48.8242 26.426L47.7237 39.6048C47.6741 40.199 47.1502 40.6423 46.5562 40.5925L45.7064 40.5215V30.6181C45.7064 29.3757 44.6956 28.3649 43.4531 28.3649H25.1289L25.5414 24.4954C25.5418 24.4909 25.5422 24.4865 25.5426 24.482C25.5922 23.8878 26.1158 23.4446 26.7102 23.4944L47.8365 25.2584C48.1244 25.2825 48.3857 25.4172 48.5722 25.6377C48.7587 25.8583 48.8482 26.1382 48.8242 26.426Z" fill="#E23065"/>
<path d="M42.0824 38.3398H36.4432C36.1196 38.3398 35.8572 38.6022 35.8572 38.9258V42.6048C35.8572 42.9284 36.1196 43.1908 36.4432 43.1908H42.0824C42.406 43.1908 42.6683 42.9284 42.6683 42.6048V38.9258C42.6683 38.6022 42.406 38.3398 42.0824 38.3398ZM41.4964 42.0189H37.0291V39.5117H41.4964V42.0189Z" fill="#E23065"/>
</svg>
