<svg width="70" height="70" viewBox="0 0 70 70" fill="none" xmlns="http://www.w3.org/2000/svg">
<rect width="70" height="70" rx="35" fill="#001024" fill-opacity="0.04"/>
<path d="M48.8378 34.8645L46.4584 31.6355L46.4858 27.6242C46.4885 27.2589 46.2525 26.9345 45.9041 26.8242L42.08 25.6132L39.7477 22.3492C39.5347 22.0508 39.1523 21.9278 38.8057 22.0431L35 23.3135L31.1943 22.0428C30.8473 21.9275 30.465 22.0505 30.2523 22.3488L27.9203 25.6125L24.096 26.8242C23.7476 26.9342 23.5116 27.2589 23.5143 27.6239L23.5416 31.6352L21.1622 34.8642C20.9459 35.1582 20.9459 35.5592 21.1622 35.8532L23.5416 39.0822L23.5142 43.0936C23.5115 43.4589 23.7475 43.7832 24.0959 43.8936L27.9199 45.1046L30.2522 48.3686C30.4119 48.5919 30.6666 48.7176 30.9303 48.7176C31.0186 48.7176 31.1072 48.7036 31.1943 48.6746L34.9999 47.4043L38.8056 48.6749C39.1523 48.7906 39.5349 48.667 39.7476 48.3689L42.0797 45.1052L45.9041 43.8936C46.2525 43.7836 46.4884 43.4589 46.4858 43.094L46.4584 39.0823L48.8378 35.8533C49.0541 35.5596 49.0541 35.1583 48.8378 34.8645ZM44.9521 38.3166C44.8454 38.4616 44.7884 38.637 44.7897 38.8166L44.8147 42.4903L41.3113 43.6C41.1393 43.6543 40.9897 43.763 40.885 43.91L38.7497 46.899L35.264 45.7354C35.0927 45.6781 34.9073 45.6781 34.736 45.7354L31.2503 46.899L29.1146 43.9097C29.0099 43.763 28.8599 43.654 28.6882 43.5993L25.1852 42.49L25.2102 38.8163C25.2115 38.6366 25.1545 38.4613 25.0478 38.3163L22.8683 35.3589L25.0476 32.4012C25.1543 32.2562 25.2113 32.0808 25.2099 31.9012L25.185 28.2275L28.6883 27.1178C28.8603 27.0635 29.01 26.9548 29.1147 26.8078L31.25 23.8188L34.7357 24.9824C34.907 25.0398 35.0924 25.0398 35.2637 24.9824L38.7494 23.8188L40.8851 26.8081C40.9898 26.9548 41.1398 27.0638 41.3115 27.1185L44.8145 28.2278L44.7895 31.9015C44.7882 32.0812 44.8452 32.2565 44.9518 32.4015L47.1319 35.3589L44.9521 38.3166Z" fill="#E23065"/>
<path d="M39.0984 31.6447L33.4377 37.3057L30.902 34.77C30.5763 34.4444 30.049 34.4444 29.7236 34.77C29.3983 35.0957 29.398 35.623 29.7236 35.9484L32.8487 39.0735C33.0113 39.2361 33.2246 39.3175 33.438 39.3175C33.6514 39.3175 33.8644 39.2361 34.0274 39.0735L40.2774 32.8234C40.603 32.4978 40.603 31.9704 40.2774 31.6451C39.9517 31.3197 39.4237 31.3194 39.0984 31.6447Z" fill="#E23065"/>
</svg>
