<svg width="70" height="70" viewBox="0 0 70 70" fill="none" xmlns="http://www.w3.org/2000/svg">
<rect width="70" height="70" rx="35" fill="#001024" fill-opacity="0.04"/>
<path d="M35 21C27.2804 21 21 27.2804 21 35C21 42.7196 27.2804 49 35 49C42.7196 49 49 42.7196 49 35C49 27.2804 42.7197 21 35 21ZM35 47.4865C31.5703 47.4865 28.4594 46.0963 26.2005 43.8502C25.2984 42.9532 24.5327 41.9195 23.9364 40.7834C23.0283 39.0533 22.5135 37.0857 22.5135 35C22.5135 28.1149 28.1149 22.5135 35 22.5135C38.2657 22.5135 41.2421 23.7743 43.4695 25.834C44.6243 26.9018 45.5779 28.1842 46.2655 29.6175C47.0478 31.2482 47.4865 33.0738 47.4865 35C47.4865 41.8851 41.8851 47.4865 35 47.4865Z" fill="#E23065"/>
<path d="M30.428 33.3918C31.2639 33.3918 31.9415 32.7142 31.9415 31.8783C31.9415 31.0424 31.2639 30.3647 30.428 30.3647C29.5921 30.3647 28.9145 31.0424 28.9145 31.8783C28.9145 32.7142 29.5921 33.3918 30.428 33.3918Z" fill="#E23065"/>
<path d="M39.793 33.3918C40.6289 33.3918 41.3065 32.7142 41.3065 31.8783C41.3065 31.0424 40.6289 30.3647 39.793 30.3647C38.9571 30.3647 38.2794 31.0424 38.2794 31.8783C38.2794 32.7142 38.9571 33.3918 39.793 33.3918Z" fill="#E23065"/>
<path d="M34.9732 42.7566C37.9014 42.7566 40.7075 41.2592 42.3143 38.7729L41.043 37.9514C39.5676 40.2345 36.8688 41.5086 34.1665 41.1968C32.0606 40.954 30.1132 39.7407 28.9569 37.9514L27.6858 38.7729C29.0848 40.9381 31.4427 42.4062 33.993 42.7004C34.3204 42.7382 34.6474 42.7566 34.9732 42.7566Z" fill="#E23065"/>
</svg>
