<svg width="70" height="70" viewBox="0 0 70 70" fill="none" xmlns="http://www.w3.org/2000/svg">
<rect width="70" height="70" rx="35" fill="#001024" fill-opacity="0.04"/>
<path d="M48.1578 32.6967C48.0406 29.3572 46.6883 26.2345 44.3137 23.8599C41.8248 21.3705 38.5169 20 35 20C27.8968 20 22.0928 25.6538 21.8427 32.6967C20.7587 33.1784 20 34.2633 20 35.5243V38.9981C20 40.704 21.3877 42.0922 23.094 42.0922C24.1981 42.0922 25.096 41.1943 25.096 40.0903V34.4317C25.096 33.3951 24.301 32.5498 23.2902 32.4494C23.6633 26.3134 28.7712 21.4351 35 21.4351C38.1342 21.4351 41.0814 22.6568 43.2996 24.875C45.3364 26.9119 46.5285 29.5668 46.7079 32.4499C45.6981 32.5513 44.9045 33.3961 44.9045 34.4317V40.0898C44.9045 41.135 45.712 41.9855 46.7347 42.074V43.5038C46.7347 45.114 45.4245 46.4238 43.8143 46.4238H41.6516C41.5454 46.1205 41.379 45.8402 41.1455 45.6077C40.7365 45.1968 40.1912 44.9705 39.6105 44.9705H37.3813C37.0613 44.9705 36.7542 45.0384 36.4729 45.1695C35.7056 45.5221 35.21 46.296 35.21 47.1413C35.21 47.722 35.4363 48.2674 35.8462 48.6754C36.2562 49.0863 36.8015 49.3126 37.3813 49.3126H39.6105C40.5347 49.3126 41.3493 48.7151 41.6531 47.8589H43.8143C46.2162 47.8589 48.1698 45.9052 48.1698 43.5038V41.8186C49.2471 41.334 50 40.2529 50 38.9972V35.5233C50 34.2633 49.2413 33.1784 48.1578 32.6967ZM23.6604 34.4317V40.0898C23.6604 40.4021 23.4064 40.6566 23.0936 40.6566C22.1789 40.6566 21.4346 39.9123 21.4346 38.9977V35.5238C21.4346 34.6087 22.1789 33.8648 23.0936 33.8648C23.4064 33.8648 23.6604 34.1193 23.6604 34.4317ZM40.3304 47.2953C40.2591 47.6331 39.9558 47.8785 39.61 47.8785H37.3808C37.1847 47.8785 37.0005 47.8019 36.8599 47.6613C36.7211 47.523 36.6446 47.3384 36.6446 47.1423C36.6446 46.8557 36.8125 46.5941 37.0756 46.473C37.1694 46.429 37.2722 46.4065 37.3808 46.4065H39.61C39.8061 46.4065 39.9903 46.4826 40.1304 46.6232C40.2692 46.7615 40.3457 46.9461 40.3457 47.1423C40.3462 47.1949 40.3404 47.2475 40.3304 47.2953ZM48.5649 38.9977C48.5649 39.9123 47.8206 40.6566 46.906 40.6566C46.5936 40.6566 46.3391 40.4026 46.3391 40.0898V34.4317C46.3391 34.1193 46.5931 33.8648 46.906 33.8648C47.8206 33.8648 48.5649 34.6092 48.5649 35.5238V38.9977Z" fill="#E23065"/>
<path d="M39.6463 39.245C41.323 39.245 42.6868 37.8807 42.6868 36.2045V30.0092C42.6868 29.1989 42.3701 28.4354 41.7951 27.8604C41.2201 27.2854 40.4571 26.9688 39.6463 26.9688H30.3536C28.677 26.9688 27.3132 28.3326 27.3132 30.0092V36.2045C27.3132 37.8811 28.677 39.245 30.3536 39.245H30.4106V40.8503C30.4106 41.4626 30.7756 42.0061 31.34 42.2352C31.5223 42.3084 31.7117 42.3447 31.8992 42.3447C32.2901 42.3447 32.6708 42.1898 32.9497 41.9013L35.6204 39.245H39.6463ZM34.8192 38.0184L31.9289 40.8929C31.916 40.9063 31.9064 40.9164 31.8791 40.9044C31.8461 40.891 31.8461 40.8695 31.8461 40.8503V38.5274C31.8461 38.1313 31.5251 37.8099 31.1286 37.8099H30.3541C29.4687 37.8099 28.7487 37.0895 28.7487 36.2045V30.0092C28.7487 29.1238 29.4687 28.4038 30.3541 28.4038H39.6468C40.0744 28.4038 40.4767 28.5713 40.781 28.875C41.0852 29.1793 41.2522 29.582 41.2522 30.0092V36.2045C41.2522 37.0899 40.5318 37.8099 39.6468 37.8099H35.3253C35.1353 37.8099 34.9536 37.885 34.8192 38.0184Z" fill="#E23065"/>
<path d="M31.5142 32.1626C30.9306 32.1626 30.4556 32.6381 30.4556 33.2212C30.4556 33.8043 30.9311 34.2798 31.5142 34.2798C32.0983 34.2798 32.5738 33.8043 32.5738 33.2212C32.5738 32.6381 32.0987 32.1626 31.5142 32.1626Z" fill="#E23065"/>
<path d="M34.9995 32.1626C34.4159 32.1626 33.9409 32.6381 33.9409 33.2212C33.9409 33.8043 34.4164 34.2798 34.9995 34.2798C35.5841 34.2798 36.0591 33.8043 36.0591 33.2212C36.0591 32.6381 35.5841 32.1626 34.9995 32.1626Z" fill="#E23065"/>
<path d="M38.4849 32.1626C37.9013 32.1626 37.4263 32.6381 37.4263 33.2212C37.4263 33.8043 37.9018 34.2798 38.4849 34.2798C39.069 34.2798 39.5445 33.8043 39.5445 33.2212C39.5445 32.6381 39.069 32.1626 38.4849 32.1626Z" fill="#E23065"/>
</svg>
