<svg width="70" height="70" viewBox="0 0 70 70" fill="none" xmlns="http://www.w3.org/2000/svg">
<rect width="70" height="70" rx="35" fill="#001024" fill-opacity="0.04"/>
<path d="M30.6858 34.6111C31.6862 36.6771 33.3568 38.3434 35.4254 39.3386C35.5779 39.4108 35.7467 39.4421 35.9151 39.4293C36.0834 39.4165 36.2455 39.3601 36.3854 39.2657L39.4236 37.2361C39.5579 37.1451 39.713 37.0895 39.8745 37.0747C40.036 37.0598 40.1986 37.0861 40.3472 37.1511L46.0347 39.5938C46.2291 39.6747 46.3915 39.8172 46.4969 39.9995C46.6023 40.1818 46.6449 40.3936 46.6181 40.6025C46.4378 42.0094 45.7511 43.3025 44.6863 44.2398C43.6216 45.177 42.2518 45.6941 40.8334 45.6945C36.4499 45.6945 32.246 43.9532 29.1464 40.8536C26.0469 37.754 24.3056 33.5501 24.3056 29.1667C24.3059 27.7482 24.8231 26.3785 25.7603 25.3137C26.6975 24.249 27.9906 23.5622 29.3976 23.382C29.6064 23.3551 29.8183 23.3977 30.0005 23.5031C30.1828 23.6085 30.3254 23.7709 30.4063 23.9653L32.849 29.665C32.9125 29.8112 32.9391 29.9708 32.9264 30.1298C32.9136 30.2887 32.862 30.4421 32.7761 30.5764L30.7465 33.6632C30.6562 33.8028 30.6032 33.9633 30.5925 34.1293C30.5819 34.2952 30.614 34.4611 30.6858 34.6111V34.6111Z" stroke="#E23065" stroke-width="2" stroke-linecap="round" stroke-linejoin="round"/>
</svg>
