<svg width="70" height="70" viewBox="0 0 70 70" fill="none" xmlns="http://www.w3.org/2000/svg">
<rect width="70" height="70" rx="35" fill="#001024" fill-opacity="0.04"/>
<path d="M29.3068 43.5V41.9659L35.0682 35.6591C35.7443 34.9205 36.3011 34.2784 36.7386 33.733C37.1761 33.1818 37.5 32.6648 37.7102 32.1818C37.9261 31.6932 38.0341 31.1818 38.0341 30.6477C38.0341 30.0341 37.8864 29.5028 37.5909 29.054C37.3011 28.6051 36.9034 28.2585 36.3977 28.0142C35.892 27.7699 35.3239 27.6477 34.6932 27.6477C34.0227 27.6477 33.4375 27.7869 32.9375 28.0653C32.4432 28.3381 32.0597 28.7216 31.7869 29.2159C31.5199 29.7102 31.3864 30.2898 31.3864 30.9545H29.375C29.375 29.9318 29.6108 29.0341 30.0824 28.2614C30.554 27.4886 31.196 26.8864 32.0085 26.4545C32.8267 26.0227 33.7443 25.8068 34.7614 25.8068C35.7841 25.8068 36.6903 26.0227 37.4801 26.4545C38.2699 26.8864 38.8892 27.4687 39.3381 28.2017C39.7869 28.9347 40.0114 29.75 40.0114 30.6477C40.0114 31.2898 39.8949 31.9176 39.6619 32.5312C39.4347 33.1392 39.0369 33.8182 38.4688 34.5682C37.9062 35.3125 37.125 36.2216 36.125 37.2955L32.2045 41.4886V41.625H40.3182V43.5H29.3068Z" fill="#E23065"/>
</svg>
