<svg width="70" height="70" viewBox="0 0 70 70" fill="none" xmlns="http://www.w3.org/2000/svg">
<rect width="70" height="70" rx="35" fill="#001024" fill-opacity="0.04"/>
<path d="M34.7045 43.7386C33.5795 43.7386 32.5767 43.5455 31.696 43.1591C30.821 42.7727 30.125 42.2358 29.608 41.5483C29.0966 40.8551 28.8182 40.0511 28.7727 39.1364H30.9205C30.9659 39.6989 31.1591 40.1847 31.5 40.5938C31.8409 40.9972 32.2869 41.3097 32.8381 41.5312C33.3892 41.7528 34 41.8636 34.6705 41.8636C35.4205 41.8636 36.0852 41.733 36.6648 41.4716C37.2443 41.2102 37.6989 40.8466 38.0284 40.3807C38.358 39.9148 38.5227 39.375 38.5227 38.7614C38.5227 38.1193 38.3636 37.554 38.0455 37.0653C37.7273 36.571 37.2614 36.1847 36.6477 35.9062C36.0341 35.6278 35.2841 35.4886 34.3977 35.4886H33V33.6136H34.3977C35.0909 33.6136 35.6989 33.4886 36.2216 33.2386C36.75 32.9886 37.1619 32.6364 37.4574 32.1818C37.7585 31.7273 37.9091 31.1932 37.9091 30.5795C37.9091 29.9886 37.7784 29.4744 37.517 29.0369C37.2557 28.5994 36.8864 28.2585 36.4091 28.0142C35.9375 27.7699 35.3807 27.6477 34.7386 27.6477C34.1364 27.6477 33.5682 27.7585 33.0341 27.9801C32.5057 28.196 32.0739 28.5114 31.7386 28.9261C31.4034 29.3352 31.2216 29.8295 31.1932 30.4091H29.1477C29.1818 29.4943 29.4574 28.6932 29.9744 28.0057C30.4915 27.3125 31.1676 26.7727 32.0028 26.3864C32.8438 26 33.767 25.8068 34.7727 25.8068C35.8523 25.8068 36.7784 26.0256 37.5511 26.4631C38.3239 26.8949 38.9176 27.4659 39.3324 28.1761C39.7472 28.8864 39.9545 29.6534 39.9545 30.4773C39.9545 31.4602 39.696 32.2983 39.179 32.9915C38.6676 33.6847 37.9716 34.1648 37.0909 34.4318V34.5682C38.1932 34.75 39.054 35.2187 39.6733 35.9744C40.2926 36.7244 40.6023 37.6534 40.6023 38.7614C40.6023 39.7102 40.3438 40.5625 39.8267 41.3182C39.3153 42.0682 38.6165 42.6591 37.7301 43.0909C36.8438 43.5227 35.8352 43.7386 34.7045 43.7386Z" fill="#E23065"/>
</svg>
