<svg width="29" height="28" viewBox="0 0 29 28" fill="none" xmlns="http://www.w3.org/2000/svg">
<path d="M5.85181 8.05322V15.3989" stroke="#A8ADB4" stroke-width="1.5" stroke-linecap="round" stroke-linejoin="round"/>
<path d="M7.8902 22.01C8.62519 20.8827 9.62982 19.9565 10.8131 19.3154C11.9963 18.6744 13.3208 18.3386 14.6666 18.3386C16.0123 18.3386 17.3368 18.6744 18.5201 19.3154C19.7034 19.9565 20.708 20.8827 21.443 22.01" stroke="#A8ADB4" stroke-width="1.5" stroke-linecap="round" stroke-linejoin="round"/>
<path d="M23.4814 8.05326L14.6666 10.9915L5.85181 8.05326L14.6666 5.11499L23.4814 8.05326Z" stroke="#A8ADB4" stroke-width="1.5" stroke-linecap="round" stroke-linejoin="round"/>
<path d="M18.4589 9.72437C19.1327 10.4602 19.5779 11.3762 19.7402 12.3606C19.9025 13.3451 19.7749 14.3555 19.3729 15.2687C18.9709 16.1819 18.3119 16.9584 17.4763 17.5035C16.6406 18.0487 15.6644 18.339 14.6667 18.339C13.669 18.339 12.6928 18.0487 11.8571 17.5035C11.0215 16.9584 10.3625 16.1819 9.96053 15.2687C9.55854 14.3555 9.43091 13.3451 9.59319 12.3606C9.75548 11.3762 10.2007 10.4602 10.8745 9.72437" stroke="#A8ADB4" stroke-width="1.5" stroke-linecap="round" stroke-linejoin="round"/>
</svg>
