<svg width="29" height="28" viewBox="0 0 29 28" fill="none" xmlns="http://www.w3.org/2000/svg">
<path d="M8.9028 24C8.67414 24 8.44708 23.9287 8.2533 23.7885C7.89233 23.5269 7.72371 23.0773 7.82196 22.6434L9.16457 16.7292L4.61128 12.736C4.27658 12.4439 4.14872 11.9811 4.28614 11.5578C4.42355 11.1352 4.79742 10.836 5.24007 10.7951L11.2646 10.2481L13.6465 4.67401C13.8221 4.26448 14.2221 4 14.6665 4C15.1109 4 15.5109 4.26448 15.6865 4.67306L18.0684 10.2481L24.092 10.7951C24.5356 10.835 24.9095 11.1352 25.0469 11.5578C25.1843 11.9804 25.0573 12.4439 24.7226 12.736L20.1693 16.7284L21.5119 22.6424C21.6103 23.0773 21.4415 23.5269 21.0807 23.7877C20.7207 24.0486 20.2406 24.0686 19.8615 23.8408L14.6665 20.7363L9.47156 23.8425C9.29593 23.9468 9.10024 24 8.9028 24ZM14.6665 19.3989C14.864 19.3989 15.0595 19.452 15.2353 19.5563L20.1381 22.4886L18.8709 16.9065C18.7805 16.5093 18.9154 16.0945 19.2224 15.8257L23.5217 12.0552L17.8336 11.5387C17.424 11.5012 17.0718 11.2438 16.9118 10.8664L14.6665 5.60613L12.4186 10.8672C12.2603 11.242 11.9081 11.4995 11.4995 11.5369L5.81059 12.0534L10.1097 15.824C10.4177 16.0935 10.5524 16.5075 10.4612 16.9058L9.19498 22.4877L14.0978 19.5563C14.2734 19.452 14.4691 19.3989 14.6665 19.3989ZM11.2186 10.3559C11.2186 10.3559 11.2186 10.3569 11.2177 10.3577L11.2186 10.3559ZM18.1127 10.3534L18.1137 10.3551C18.1137 10.3542 18.1137 10.3542 18.1127 10.3534Z" fill="#A8ADB4"/>
</svg>
