<svg width="29" height="28" viewBox="0 0 29 28" fill="none" xmlns="http://www.w3.org/2000/svg">
<path d="M7.77311 17.9645L7.8617 17.6538L7.69681 17.376C6.75834 15.795 6.42941 13.9256 6.77177 12.1192C7.11413 10.3127 8.10424 8.69335 9.55615 7.56528C11.0081 6.43721 12.8219 5.87802 14.6569 5.99274C16.492 6.10746 18.222 6.88818 19.5221 8.18829C20.8222 9.4884 21.6029 11.2184 21.7177 13.0535C21.8324 14.8885 21.2732 16.7023 20.1451 18.1542C19.017 19.6061 17.3977 20.5963 15.5912 20.9386C13.7848 21.281 11.9154 20.952 10.3343 20.0136L10.0565 19.8487L9.74587 19.9373L6.98623 20.7242L7.77311 17.9645Z" stroke="#A8ADB4" stroke-width="1.5"/>
</svg>
