<svg width="128" height="27" viewBox="0 0 128 27" fill="none" xmlns="http://www.w3.org/2000/svg">
<path fill-rule="evenodd" clip-rule="evenodd" d="M35.916 17.2933C36.0056 19.5793 35.6593 21.8541 34.9032 23.9977L34.8999 24L34.8967 24.0021C34.0777 25.8265 32.2668 27 30.27 27H5.67524C3.67271 27 1.85539 25.8266 1.02691 24C0.270398 21.8559 -0.0758049 19.58 0.0138629 17.2933C0.134538 14.2159 1.04127 11.221 2.64732 8.59503C4.25337 5.96907 6.50502 3.79993 9.18688 2.29507C11.8688 0.790221 14.8911 0 17.9649 0C21.0387 0 24.0611 0.790219 26.743 2.29507C29.4248 3.79992 31.6765 5.96907 33.2825 8.59503C34.8886 11.221 35.7953 14.2159 35.916 17.2933ZM4.21298 23.7748C4.27041 23.9121 4.40532 24 4.5539 24H10.1783C10.3707 24 10.5307 23.8537 10.5584 23.6629C10.595 23.4103 10.6442 23.1617 10.7052 22.9179C10.752 22.7312 10.66 22.5352 10.4825 22.4615L3.6947 19.6458C3.43412 19.5377 3.15356 19.7463 3.19182 20.0262C3.3676 21.3128 3.71036 22.5732 4.21298 23.7748ZM25.753 24C25.5607 24 25.4006 23.8537 25.373 23.6629C25.3315 23.3768 25.274 23.0959 25.2012 22.8213C25.1516 22.6338 25.2428 22.4351 25.4214 22.3603L32.2533 19.4992C32.5125 19.3907 32.7931 19.5963 32.7578 19.8756C32.5887 21.2145 32.2391 22.5264 31.7169 23.7748C31.6594 23.9121 31.5245 24 31.3759 24H25.753ZM3.06232 17.5024C3.0572 17.6563 3.14927 17.7961 3.2912 17.855L11.0548 21.0755C11.2324 21.1491 11.4359 21.0755 11.5344 20.9102C11.6659 20.6895 11.8085 20.4761 11.9613 20.2708C12.0763 20.1163 12.0663 19.8996 11.9303 19.7634L4.66089 12.4798C4.47387 12.2924 4.15752 12.3534 4.06193 12.6005C3.46908 14.133 3.13043 15.7589 3.06554 17.4135C3.06438 17.4431 3.06331 17.4728 3.06232 17.5024ZM5.11366 10.4235C5.02851 10.5685 5.05407 10.7524 5.17279 10.8713L12.9889 18.7027C13.1249 18.839 13.3412 18.849 13.4953 18.7338C13.6991 18.5816 13.9108 18.4395 14.1298 18.3083C14.2946 18.2095 14.368 18.0057 14.2945 17.8279L9.52127 6.2818C9.42884 6.0582 9.15226 5.97949 8.9606 6.12679C7.4932 7.25459 6.19443 8.65184 5.25131 10.1939C5.20472 10.2701 5.15883 10.3466 5.11366 10.4235ZM10.8538 4.875C10.7171 4.95173 10.6611 5.11921 10.721 5.26428L15.6774 17.2534C15.7509 17.4312 15.9467 17.5234 16.1331 17.4764C16.3779 17.4147 16.6276 17.365 16.8814 17.3281C17.0718 17.3004 17.2179 17.1401 17.2179 16.9473V3.46872C17.2179 3.25503 17.0398 3.08408 16.8271 3.09888C14.7134 3.24589 12.7446 3.81401 10.8538 4.875ZM19.1058 3.09909C18.893 3.08425 18.7149 3.25521 18.7149 3.46892V16.9475C18.7149 17.1403 18.861 17.3006 19.0513 17.3283C19.3046 17.3652 19.5538 17.4148 19.7982 17.4764C19.9845 17.5234 20.1803 17.4312 20.2538 17.2533L25.2094 5.26612C25.2697 5.12036 25.2134 4.95209 25.076 4.875C23.1861 3.81452 21.2183 3.24644 19.1058 3.09909ZM26.9703 6.12761C26.7787 5.98029 26.5021 6.05899 26.4096 6.2826L21.6368 17.8278C21.5633 18.0056 21.6366 18.2095 21.8015 18.3082C22.0204 18.4394 22.232 18.5814 22.4356 18.7335C22.5898 18.8487 22.8061 18.8387 22.942 18.7024L30.7574 10.8718C30.8761 10.7529 30.9016 10.569 30.8165 10.424C30.7712 10.347 30.7252 10.2702 30.6785 10.1939C29.7356 8.65221 28.4373 7.25526 26.9703 6.12761ZM31.8681 12.6011C31.7726 12.354 31.4562 12.2929 31.2692 12.4803L24.0007 19.763C23.8647 19.8992 23.8548 20.116 23.9698 20.2704C24.1029 20.4492 24.2282 20.6342 24.3453 20.8248C24.4452 20.9875 24.6474 21.0586 24.8233 20.985L32.6853 17.6926C32.7971 17.6457 32.8691 17.5348 32.8643 17.4135C32.7994 15.7591 32.4609 14.1334 31.8681 12.6011Z" fill="white"/>
<path d="M51.3161 24.7143C47.4848 24.7143 44.9123 22.4129 44.9123 19.0409V19.0053C44.9123 15.7404 47.503 13.7422 52.0459 13.4746L57.2638 13.1713V11.7619C57.2638 9.69236 55.8955 8.4435 53.4507 8.4435C51.1702 8.4435 49.7653 9.49611 49.4369 10.9947L49.4004 11.1553H45.6786L45.6968 10.9591C45.9705 7.72987 48.8349 5.25 53.5602 5.25C58.249 5.25 61.2229 7.67635 61.2229 11.4408V24.3753H57.2638V21.4138H57.1908C56.0779 23.4298 53.8521 24.7143 51.3161 24.7143ZM48.8896 18.9517C48.8896 20.5931 50.2762 21.6279 52.3925 21.6279C55.1657 21.6279 57.2638 19.7903 57.2638 17.3461V15.8831L52.575 16.1686C50.2032 16.3113 48.8896 17.3282 48.8896 18.9161V18.9517Z" fill="white"/>
<path d="M71.2121 24.75C66.9976 24.75 64.5894 22.0917 64.5894 17.7742V5.60682H68.5302V17.0249C68.5302 19.8616 69.8803 21.4316 72.617 21.4316C75.3901 21.4316 77.1781 19.487 77.1781 16.5611V5.60682H81.1371V24.3753H77.1781V21.5565H77.0869C76.0834 23.4476 74.1312 24.75 71.2121 24.75Z" fill="white"/>
<path d="M84.6678 24.3753V5.60682H88.6086V8.81816H88.6999C89.3202 6.62374 90.9257 5.25 93.115 5.25C93.6806 5.25 94.1732 5.3392 94.4834 5.39273V8.97873C94.1732 8.85384 93.4799 8.76464 92.7136 8.76464C90.1777 8.76464 88.6086 10.3882 88.6086 13.1892V24.3753H84.6678Z" fill="white"/>
<path d="M101.791 24.7143C97.9593 24.7143 95.3868 22.4129 95.3868 19.0409V19.0053C95.3868 15.7404 97.9776 13.7422 102.52 13.4746L107.738 13.1713V11.7619C107.738 9.69236 106.37 8.4435 103.925 8.4435C101.645 8.4435 100.24 9.49611 99.9115 10.9947L99.875 11.1553H96.1531L96.1714 10.9591C96.445 7.72987 99.3094 5.25 104.035 5.25C108.724 5.25 111.697 7.67635 111.697 11.4408V24.3753H107.738V21.4138H107.665C106.552 23.4298 104.327 24.7143 101.791 24.7143ZM99.3641 18.9517C99.3641 20.5931 100.751 21.6279 102.867 21.6279C105.64 21.6279 107.738 19.7903 107.738 17.3461V15.8831L103.05 16.1686C100.678 16.3113 99.3641 17.3282 99.3641 18.9161V18.9517Z" fill="white"/>
<path d="M115.593 24.3753L123.977 8.57232V8.4931H114.067V5.32457H128V8.53271L119.872 24.3753H115.593Z" fill="white"/>
</svg>
